<svg width="36" height="36" viewBox="0 0 36 36" fill="none" xmlns="http://www.w3.org/2000/svg">
<circle cx="18" cy="18" r="18" fill="white"/>
<rect x="10" y="10" width="15.9995" height="15.9998" fill="white" fill-opacity="0.01"/>
<path d="M13.5458 19.6684L12.9889 21.7475L10.9534 21.7905C10.3451 20.6622 10 19.3712 10 17.9994C10 16.6728 10.3226 15.4218 10.8945 14.3203H10.8949L12.7071 14.6526L13.501 16.4539C13.3348 16.9383 13.2442 17.4583 13.2442 17.9994C13.2443 18.5866 13.3507 19.1493 13.5458 19.6684Z" fill="#FBBB00"/>
<path d="M25.8599 16.5051C25.9518 16.9891 25.9997 17.4888 25.9997 17.9996C25.9997 18.5723 25.9395 19.131 25.8247 19.6699C25.4353 21.5037 24.4177 23.105 23.0081 24.2382L23.0077 24.2378L20.7251 24.1213L20.4021 22.1046C21.3374 21.5561 22.0684 20.6976 22.4535 19.6699H18.1758V16.5051H22.5159H25.8599Z" fill="#518EF8"/>
<path d="M23.0073 24.2383L23.0077 24.2388C21.6368 25.3407 19.8953 26.0001 17.9995 26.0001C14.953 26.0001 12.3043 24.2972 10.9531 21.7913L13.5456 19.6692C14.2212 21.4722 15.9604 22.7557 17.9995 22.7557C18.8759 22.7557 19.697 22.5188 20.4016 22.1052L23.0073 24.2383Z" fill="#28B446"/>
<path d="M23.107 11.8417L20.5154 13.9634C19.7862 13.5076 18.9243 13.2443 18.0008 13.2443C15.9156 13.2443 14.1438 14.5867 13.502 16.4544L10.8959 14.3208H10.8955C12.2269 11.7538 14.909 10 18.0008 10C19.9418 10 21.7216 10.6914 23.107 11.8417Z" fill="#F14336"/>
</svg>
