<svg width="36" height="36" viewBox="0 0 36 36" fill="none" xmlns="http://www.w3.org/2000/svg">
<circle cx="18" cy="18" r="18" fill="white"/>
<path d="M26.8002 13.74C26.9302 13.32 26.8002 13 26.1802 13H24.1602C23.6402 13 23.4102 13.27 23.2802 13.57C23.2802 13.57 22.2502 16.08 20.7902 17.72C20.3102 18.19 20.1002 18.34 19.8402 18.34C19.7102 18.34 19.5002 18.19 19.5002 17.76V13.74C19.5002 13.23 19.3802 13 18.9502 13H15.7602C15.4402 13 15.2502 13.24 15.2502 13.47C15.2502 13.95 16.0002 14.07 16.0502 15.44V18.42C16.0502 19.08 15.9302 19.2 15.6802 19.2C15.0002 19.2 13.3202 16.67 12.3302 13.79C12.1302 13.23 11.9402 13 11.4202 13H9.3902C8.8202 13 8.7002 13.27 8.7002 13.57C8.7002 14.11 9.3902 16.77 11.9002 20.29C13.5702 22.7 15.9302 24 18.0802 24C19.3702 24 19.5302 23.71 19.5302 23.21V21.39C19.5302 20.82 19.6502 20.7 20.0602 20.7C20.3602 20.7 20.8702 20.85 22.0702 22C23.4502 23.38 23.6702 24 24.4502 24H26.4702C27.0502 24 27.3402 23.71 27.1802 23.14C27.0002 22.57 26.3402 21.74 25.4702 20.76C25.0002 20.21 24.2902 19.61 24.0702 19.3C23.7702 18.92 23.8602 18.75 24.0702 18.4C24.0702 18.4 26.5402 14.93 26.8002 13.74Z" fill="#627DA1"/>
</svg>
