<svg width="90" height="18" viewBox="0 0 90 18" fill="none" xmlns="http://www.w3.org/2000/svg">
<path d="M5.22941 9.11405C5.22941 9.74158 5.34795 10.3203 5.58501 10.8502C5.82208 11.3801 6.14282 11.8403 6.54722 12.2308C6.95163 12.6212 7.41879 12.928 7.94871 13.1512C8.49257 13.3603 9.06431 13.4649 9.66395 13.4649C10.2636 13.4649 10.8284 13.3603 11.3583 13.1512C11.9021 12.928 12.3763 12.6212 12.7807 12.2308C13.199 11.8403 13.5267 11.3801 13.7638 10.8502C14.0009 10.3203 14.1194 9.74158 14.1194 9.11405C14.1194 8.48652 14.0009 7.9078 13.7638 7.37788C13.5267 6.84797 13.199 6.38778 12.7807 5.99732C12.3763 5.60685 11.9021 5.30704 11.3583 5.09786C10.8284 4.87474 10.2636 4.76318 9.66395 4.76318C9.06431 4.76318 8.49257 4.87474 7.94871 5.09786C7.41879 5.30704 6.95163 5.60685 6.54722 5.99732C6.14282 6.38778 5.82208 6.84797 5.58501 7.37788C5.34795 7.9078 5.22941 8.48652 5.22941 9.11405ZM0.941294 9.11405C0.941294 7.94266 1.15744 6.85494 1.58974 5.85089C2.02204 4.8329 2.62168 3.94739 3.38866 3.19435C4.15564 2.44132 5.06904 1.85562 6.12887 1.43727C7.20264 1.00497 8.381 0.788823 9.66395 0.788823C10.933 0.788823 12.1043 1.00497 13.1781 1.43727C14.2519 1.85562 15.1723 2.44132 15.9392 3.19435C16.7202 3.94739 17.3268 4.8329 17.7591 5.85089C18.1914 6.85494 18.4075 7.94266 18.4075 9.11405C18.4075 10.2854 18.1914 11.3801 17.7591 12.3981C17.3268 13.4022 16.7202 14.2807 15.9392 15.0337C15.1723 15.7868 14.2519 16.3794 13.1781 16.8117C12.1043 17.2301 10.933 17.4393 9.66395 17.4393C8.381 17.4393 7.20264 17.2301 6.12887 16.8117C5.06904 16.3794 4.15564 15.7868 3.38866 15.0337C2.62168 14.2807 2.02204 13.4022 1.58974 12.3981C1.15744 11.3801 0.941294 10.2854 0.941294 9.11405ZM20.9972 17V1.22809H25.0971L32.6693 10.8711V1.22809H36.7482V17H32.6693L25.0971 7.35696V17H20.9972ZM46.0384 4.70042V17H41.9386V4.70042H38.5708V1.22809H49.4062V4.70042H46.0384ZM55.3296 1.22809V17H51.2298V1.22809H55.3296ZM57.9133 17L60.5907 1.22809H64.6488L67.8073 9.63699L70.945 1.22809H75.003L77.6805 17H73.6015L72.2419 7.92174L68.5185 17H66.887L63.3519 7.92174L61.9922 17H57.9133ZM89.2512 4.70042H84.3774V7.33605H88.9793V10.8084H84.3774V13.5277H89.2512V17H80.2775V1.22809H89.2512V4.70042Z" fill="black"/>
</svg>
