<svg width="76" height="15" viewBox="0 0 76 15" fill="none" xmlns="http://www.w3.org/2000/svg">
<path d="M1.73616 4.06412C2.37764 2.87878 3.27013 1.97235 4.41362 1.34482C5.55712 0.717294 6.74943 0.403529 7.99054 0.403529C8.15788 0.403529 8.32522 0.410502 8.49256 0.424446C8.67385 0.438392 8.84817 0.452338 9.01551 0.466282C9.53147 0.536008 10.0405 0.661514 10.5425 0.8428C11.0585 1.02409 11.5465 1.26115 12.0067 1.554C12.9968 2.19547 13.7638 3.0531 14.3077 4.12687C14.8515 5.1867 15.1235 6.29533 15.1235 7.45278C15.1235 7.59223 15.1165 7.73865 15.1025 7.89205C15.1025 8.0315 15.0886 8.17095 15.0607 8.3104C15.0328 8.60325 14.977 8.89609 14.8934 9.18894C14.8236 9.46784 14.733 9.74675 14.6214 10.0256C14.0357 11.3783 13.1223 12.4312 11.8812 13.1842C10.6401 13.9233 9.33624 14.2928 7.96962 14.2928C7.87201 14.2928 7.77439 14.2859 7.67678 14.2719C7.59311 14.2719 7.50246 14.2719 7.40485 14.2719C6.93071 14.2301 6.45658 14.1464 5.98245 14.0209C5.52226 13.8954 5.07602 13.7211 4.64372 13.498C3.47233 12.8844 2.55195 12.0128 1.88259 10.8833C1.21322 9.73977 0.878541 8.55444 0.878541 7.32727C0.878541 7.14598 0.885514 6.9647 0.899459 6.78341C0.913404 6.60213 0.941294 6.41387 0.983129 6.21864C1.05285 5.85606 1.15047 5.49349 1.27598 5.13092C1.40148 4.7544 1.55488 4.3988 1.73616 4.06412ZM11.2537 8.85426C11.2955 8.71481 11.3304 8.56838 11.3583 8.41499C11.4001 8.26159 11.428 8.1082 11.442 7.9548C11.4559 7.85718 11.4629 7.75957 11.4629 7.66195C11.4768 7.56434 11.4838 7.47369 11.4838 7.39002C11.4838 7.30635 11.4768 7.22268 11.4629 7.13901C11.4629 7.05534 11.4629 6.97167 11.4629 6.888C11.3931 6.28836 11.2119 5.70964 10.919 5.15184C10.6262 4.59403 10.2218 4.16173 9.70579 3.85494C9.56634 3.78522 9.42689 3.72246 9.28744 3.66668C9.14798 3.6109 9.00853 3.56209 8.86908 3.52026C8.72963 3.49237 8.59018 3.47145 8.45073 3.45751C8.31128 3.42962 8.17183 3.41567 8.03238 3.41567C7.32118 3.41567 6.66576 3.63879 6.06612 4.08503C5.46648 4.53128 5.04813 5.12394 4.81106 5.86303C4.79711 5.89093 4.78317 5.91882 4.76922 5.94671C4.76922 5.9746 4.76922 6.00249 4.76922 6.03038C4.72739 6.15588 4.69253 6.28836 4.66464 6.42781C4.63675 6.55332 4.60886 6.6858 4.58096 6.82525C4.56702 6.92286 4.55307 7.02048 4.53913 7.11809C4.53913 7.20176 4.53913 7.29241 4.53913 7.39002C4.53913 7.4458 4.53913 7.50158 4.53913 7.55736C4.53913 7.5992 4.5461 7.64801 4.56005 7.70379C4.60188 8.44288 4.825 9.14711 5.22941 9.81647C5.64776 10.4719 6.21951 10.9042 6.94466 11.1134C7.02833 11.1413 7.112 11.1691 7.19567 11.197C7.27934 11.211 7.36998 11.2249 7.4676 11.2389C7.55127 11.2528 7.63494 11.2668 7.71861 11.2807C7.80228 11.2807 7.88595 11.2807 7.96962 11.2807C8.70871 11.2807 9.37111 11.0646 9.9568 10.6323C10.5564 10.186 10.9887 9.59335 11.2537 8.85426ZM17.6656 14V0.675459H21.1798L26.2 7.51553C26.3255 7.71076 26.444 7.91994 26.5556 8.14306C26.6811 8.35224 26.7996 8.56838 26.9112 8.79151C26.9949 8.97279 27.0785 9.15408 27.1622 9.33536C27.2459 9.51665 27.3296 9.69096 27.4132 9.85831C27.3993 9.70491 27.3784 9.55849 27.3505 9.41904C27.3365 9.27958 27.3226 9.13316 27.3086 8.97976C27.2808 8.70086 27.2598 8.41499 27.2459 8.12214C27.2319 7.82929 27.225 7.52947 27.225 7.22268V0.675459H30.7182V14H27.225L22.1629 7.11809C22.0234 6.95075 21.891 6.75552 21.7655 6.5324C21.64 6.29533 21.5214 6.05129 21.4099 5.80028C21.3262 5.619 21.2425 5.44468 21.1589 5.27734C21.0891 5.09605 21.0194 4.92871 20.9497 4.77532C21.0194 5.20762 21.0752 5.64689 21.117 6.09313C21.1589 6.53937 21.1798 6.98562 21.1798 7.43186V14H17.6656ZM36.3241 14V3.83402H33.3538V0.675459H42.9341V3.83402H39.9638V14H36.3241ZM43.6288 14V0.675459H47.2894V14H43.6288ZM65.3114 14H61.9228L61.1488 8.22673C61.107 7.97572 61.0721 7.73168 61.0442 7.49461C61.0163 7.2436 60.9884 6.99259 60.9606 6.74158C60.9466 6.49056 60.9257 6.24653 60.8978 6.00946C60.8839 5.75845 60.8629 5.50744 60.8351 5.25642C60.8211 5.39587 60.8002 5.53533 60.7723 5.67478C60.7444 5.81423 60.7095 5.95368 60.6677 6.09313C60.6119 6.37203 60.5422 6.65093 60.4585 6.92983C60.3888 7.19479 60.3121 7.47369 60.2284 7.76654L58.4295 14H56.024L54.2042 7.76654C54.1205 7.47369 54.0438 7.19479 53.9741 6.92983C53.9043 6.65093 53.8346 6.37203 53.7649 6.09313C53.737 5.95368 53.7021 5.81423 53.6603 5.67478C53.6324 5.53533 53.6045 5.39587 53.5766 5.25642C53.5627 5.50744 53.5418 5.75845 53.5139 6.00946C53.4999 6.24653 53.479 6.49056 53.4511 6.74158C53.4232 6.99259 53.3953 7.2436 53.3675 7.49461C53.3396 7.73168 53.3117 7.97572 53.2838 8.22673L52.5098 14H49.1421L51.1711 0.675459H54.7689L56.7979 7.51553C56.8398 7.68287 56.8816 7.84324 56.9235 7.99664C56.9792 8.13609 57.0211 8.28251 57.049 8.43591C57.0908 8.5893 57.1257 8.7427 57.1535 8.89609C57.1814 9.03554 57.2024 9.18894 57.2163 9.35628C57.2442 9.175 57.2721 9.00068 57.3 8.83334C57.3418 8.65205 57.3836 8.47077 57.4255 8.28948C57.4534 8.16398 57.4813 8.03847 57.5091 7.91296C57.537 7.78746 57.5719 7.65498 57.6137 7.51553L59.6637 0.675459H63.2406L65.3114 14ZM67.5513 14V0.675459H75.7301V3.58301H71.1282V5.90487H75.4581V8.74967H71.1282V11.0088H75.7301V14H67.5513Z" fill="white"/>
</svg>
